<svg width="1440" height="210" viewBox="0 0 1440 210" fill="none" xmlns="http://www.w3.org/2000/svg">
<path d="M23.2308 87.1673C27.283 87.1653 30.8744 88.3972 34.0048 90.863C37.1352 93.3288 39.1629 96.4483 40.0879 100.221L171.279 100.156L171.283 108.865L40.0835 108.93C39.1623 112.704 37.1377 115.825 34.0097 118.294C30.8817 120.763 27.2945 121.999 23.248 122.001C18.3714 122.003 14.2486 120.321 10.8797 116.956C7.5108 113.59 5.82515 109.472 5.82274 104.601C5.82032 99.7305 7.50189 95.6077 10.8674 92.233C14.233 88.8583 18.3541 87.1697 23.2308 87.1673Z" fill="black"/>
<path d="M1417.81 121.969C1413.76 121.969 1410.17 120.735 1407.04 118.268C1403.91 115.8 1401.88 112.68 1400.96 108.906H1269.77V100.198H1400.97C1401.89 96.4241 1403.92 93.3037 1407.05 90.8363C1410.18 88.3689 1413.77 87.1353 1417.81 87.1353C1422.69 87.1353 1426.81 88.8189 1430.18 92.1861C1433.55 95.5533 1435.23 99.6723 1435.23 104.543C1435.23 109.414 1433.55 113.536 1430.18 116.909C1426.81 120.282 1422.69 121.969 1417.81 121.969Z" fill="black"/>
<line x1="279.004" y1="101" x2="1171" y2="103" stroke="black" stroke-width="4"/>
</svg>
